<mxfile host="app.diagrams.net" modified="2023-06-17T13:27:37.470Z" agent="Mozilla/5.0 (Windows NT 10.0; Win64; x64) AppleWebKit/537.36 (KHTML, like Gecko) Chrome/114.0.0.0 Safari/537.36" version="21.3.2" etag="PX79Oje1lPxwKvxr61hW" type="github">
  <diagram name="Trang-1" id="QzjG_Apx3L5g6McDo03W">
    <mxGraphModel>
      <root>
        <mxCell id="0" />
        <mxCell id="1" parent="0" />
      </root>
    </mxGraphModel>
  </diagram>
</mxfile>
